<svg xmlns="http://www.w3.org/2000/svg" xmlns:xlink="http://www.w3.org/1999/xlink" viewBox="0 0 975.00264 736.78125" width="250" height="250">
  <defs>
    <style>
      .cls-1 {
        fill: #1caed0;
      }

      .cls-2 {
        fill: #333;
      }

      .cls-3, .cls-4, .cls-8 {
        stroke: #000;
      }

      .cls-3, .cls-4, .cls-7, .cls-8 {
        stroke-miterlimit: 10;
      }

      .cls-3 {
        stroke-width: 0.9448px;
      }

      .cls-5 {
        fill: #fff;
      }

      .cls-6 {
        fill: url(#linear-gradient);
      }

      .cls-7 {
        fill: #0fa8f5;
        stroke: #fff;
      }

      .cls-8 {
        fill: none;
      }

      .cls-9 {
        font-size: 157px;
        fill: #4d4d4d;
        font-family: Andalus;
      }
    </style>
    <linearGradient id="linear-gradient" x1="902.30848" y1="1081.15396" x2="902.30848" y2="1081.15396" gradientUnits="userSpaceOnUse">
      <stop offset="0"/>
      <stop offset="0.24562"/>
      <stop offset="1"/>
    </linearGradient>
  </defs>
  <g id="Layer_4" data-name="Layer 4">
    <polygon class="cls-1" points="79.377 604.424 98.435 413.72 102.782 405.354 101.282 405.354 98.171 413.863 294.893 204.934 495.775 413.354 494.898 486.082 34.638 486.565 35.39 405.354 294.971 136.541 583.98 411.968 701.46 323.137 769.269 396.211 753.385 396.006 753.352 515.661 689.166 518.859 780.601 521.109 782.285 412.012 823.302 412.012 701.987 288.012 585.329 373.1 296.761 98.939 0.256 405.354 0 512.358 531.622 513.102 530.971 405.354 294.743 163.878 62.121 405.354 79.377 604.424"/>
    <polygon class="cls-2" points="106.894 563.826 775.45 563.463 783.776 565.585 775.45 567.708 106.894 567.382 98.071 565.585 106.894 563.826"/>
  </g>
  <g id="Layer_5" data-name="Layer 5">
    <path class="cls-3" d="M731.61505,1042.3189" transform="translate(-113.21518 -486.14063)"/>
    <path class="cls-3" d="M728.85725,1044.08156" transform="translate(-113.21518 -486.14063)"/>
    <path class="cls-3" d="M745.46264,1037.7363" transform="translate(-113.21518 -486.14063)"/>
    <path class="cls-3" d="M741.34976,1035.01655" transform="translate(-113.21518 -486.14063)"/>
    <path class="cls-3" d="M850.12576,942.98091" transform="translate(-113.21518 -486.14063)"/>
    <path class="cls-4" d="M731.82511,1040.49684" transform="translate(-113.21518 -486.14063)"/>
    <path class="cls-4" d="M742.37017,1033.95125" transform="translate(-113.21518 -486.14063)"/>
    <path class="cls-5" d="M782.381,908.46809" transform="translate(-113.21518 -486.14063)"/>
    <path class="cls-6" d="M902.30848,1081.154" transform="translate(-113.21518 -486.14063)"/>
    <path class="cls-7" d="M899.56723,1042.60351" transform="translate(-113.21518 -486.14063)"/>
    <path d="M904.95361,1064.58807" transform="translate(-113.21518 -486.14063)"/>
    <path d="M774.11538,1128.64548" transform="translate(-113.21518 -486.14063)"/>
    <path class="cls-4" d="M763.68609,1090.56432" transform="translate(-113.21518 -486.14063)"/>
    <path class="cls-8" d="M743.11034,1112.30368" transform="translate(-113.21518 -486.14063)"/>
    <path d="M1084.09341,884.18525h0a4.18561,4.18561,0,0,1,4.11916,4.39238v0A4.23943,4.23943,0,0,1,1084,892.60714l-.86789.00444a3.76314,3.76314,0,0,1-3.78207-3.8107v0A4.67527,4.67527,0,0,1,1084.09341,884.18525Z" transform="translate(-113.21518 -486.14063)"/>
    <path d="M195.46736,1104.55042" transform="translate(-113.21518 -486.14063)"/>
    <path class="cls-4" d="M757.63972,1098.28638" transform="translate(-113.21518 -486.14063)"/>
    <path class="cls-8" d="M893.81607,1138.50726" transform="translate(-113.21518 -486.14063)"/>
    <path class="cls-8" d="M713.98307,1084.39719" transform="translate(-113.21518 -486.14063)"/>
    <text x="-113.21518" y="-486.14063"/>    <text class="cls-9" transform="translate(554.10724 518.85938)">لهج</text>
    <text x="-113.21518" y="-486.14063"/>  </g>
</svg>
